<?xml version="1.0" encoding="utf-8"?>
<!-- Generator: Adobe Illustrator 24.0.1, SVG Export Plug-In . SVG Version: 6.00 Build 0)  -->
<svg version="1.1" id="Camada_1" xmlns="http://www.w3.org/2000/svg" xmlns:xlink="http://www.w3.org/1999/xlink" x="0px" y="0px"
	 viewBox="0 0 1000 541.8" style="enable-background:new 0 0 1000 541.8;" xml:space="preserve">
<style type="text/css">
	.st0{fill:#E5A000;}
	.st1{fill:#1AFF00;}
	.st2{fill:#FFE600;}
	.st3{opacity:0.5;fill:#FFE6FF;enable-background:new    ;}
	.st4{fill:#FFE6FF;}
</style>
<g id="Camada_3">
	<circle class="st0" cx="729.3" cy="270.3" r="269.3"/>
</g>
<g id="Camada_1_1_">
	<g>
		<path class="st1" d="M419,525.6H195.9C90.3,525.6,4.4,439.8,4.4,334.1V204.2C4.4,98.5,90.3,12.7,195.9,12.7h221.6v190.8H307.5
			l-10.3-69H196c-38.2,0-69.7,31.6-69.7,69.7v129.9c0,38.2,31.6,69.7,69.7,69.7h112.3v-55H198.2V238H419V525.6z"/>
	</g>
	<circle class="st2" cx="728.1" cy="270.3" r="255.3"/>
	<circle class="st0" cx="728.1" cy="270.3" r="222.7"/>
	<g>
		<path class="st2" d="M745.9,91.1c0.8,1.9,1.2,4,1,6.2c-0.1,2.2-0.1,4.4,0,6.5c0.1,2.1,0.5,4,1.2,5.6c0.7,1.7,2.3,2.8,4.8,3.3
			c6.1,2.5,12.4,4.5,19,6c6.5,1.5,12.6,3.8,18.1,6.9c3.1,2.5,6.6,5.3,10.6,8.3c4,3.1,6.2,6.8,6.5,11.3c-0.6,9.2-0.7,18.5-0.4,28.1
			c0.3,9.6,0.1,19-0.4,28.1c-0.6,2.2-1.7,4.1-3.3,5.6c-1.7,1.5-3.6,2.6-5.8,3.1c-3.9,0.3-8.1,0.3-12.7,0.2c-4.6-0.1-8-1.9-10.2-5.2
			c-0.8-1.7-1.1-3.5-0.8-5.6c0.3-2.1,0.3-4,0-5.6c-1.4-2.8-2.4-5.7-2.9-8.8c-0.6-3.1-1.1-6.2-1.7-9.4c-0.6-3.2-1.3-6.3-2.3-9.4
			c-1-3.1-2.6-5.8-4.8-8.3c-1.4-2.2-3-4.5-4.8-6.9c-1.8-2.4-3.8-4.2-6-5.6c-2.2,0-3.9,1.1-5,3.3c-0.6,1.4-0.6,2.9,0,4.6
			c0.5,1.7,0.1,3.2-1.2,4.6c-0.8,2.2-1.1,4.5-0.8,6.7c0.3,2.2,0.7,4.4,1.2,6.5c0.5,2.1,1,4.2,1.2,6.2c0.3,2.1,0,4.4-0.8,6.9
			c0.5,3.1,0.5,6.2,0,9.4c-0.6,3.2-1,6.3-1.2,9.4c0.3,3.9,0.3,8,0,12.3c-0.3,4.3,1.1,8,4.2,11c8.1,4.7,15.7,9.5,22.9,14.4
			c7.2,4.9,14.4,10.8,21.7,17.7c8.1,8.1,14.1,16.8,18.1,26.3c4,9.5,7.1,19.5,9.4,30c0.5,7.2,0.3,14.3-0.8,21.3
			c-1.1,6.9-2.4,13.6-3.8,20c-3.1,8.1-7.6,16.2-13.5,24.4c-6,8.2-13.3,14-21.9,17.3c-3.1,2.5-6.5,4.2-10.4,5
			c-3.9,0.8-7.5,2.2-10.8,4.2c-2.2,0.5-4.6,1.2-7.1,1.9c-2.5,0.7-4.5,2.3-5.8,4.8c-0.8,1.9-1.3,4.1-1.5,6.5c-0.1,2.4-0.5,4.7-1,6.9
			c-0.6,2.2-1.5,4.2-2.7,5.8s-3.3,2.9-6,3.8c-2.2,0.8-5,1.2-8.3,1.2c-3.3,0-6.1-0.8-8.3-2.5c-2.2-1.7-3.4-4-3.5-7.1
			c-0.1-3.1-0.3-6-0.4-9c-0.1-2.9-0.8-5.5-1.9-7.7c-1.1-2.2-3.6-3.3-7.5-3.3c-8.1-0.6-15.7-1.8-22.9-3.8c-7.2-1.9-14.5-3.8-21.7-5.4
			c-3.9-1.7-7.7-3-11.5-4c-3.8-1-6.7-3.5-9-7.7c-1.4-2.8-2.1-5.8-2.1-9.2c0-3.3,0-6.5,0-9.6c0.8-8.1,1-16.4,0.4-25
			c-0.6-8.6,0-17,1.7-25c0.8-2.8,2.1-4.7,4-5.8c1.8-1.1,3.9-1.9,6.2-2.3s4.9-0.6,7.5-0.6c2.6,0,5.2-0.1,7.7-0.4
			c2.8,0.8,4.9,2.2,6.2,4.2c1.4,1.9,2.4,4.1,3.1,6.5c0.7,2.4,1.1,4.8,1.2,7.3c0.1,2.5,0.5,4.9,1,7.1c1.1,3.9,2.6,8.1,4.4,12.5
			c1.8,4.4,4,8.5,6.7,12.3c2.6,3.8,5.7,7,9.2,9.8c3.5,2.8,7.6,4.6,12.3,5.4c1.7,0,2.8-1,3.3-2.9c1.1-6.7,1.5-13.3,1-19.8
			c-0.4-6.5-0.6-13.4-0.6-20.6c0.5-5.5,0.8-11.5,0.6-17.7c-0.1-6.2-0.3-12.4-0.6-18.5c-0.3-3.1-1.3-5.6-3.1-7.5
			c-1.8-1.9-3.8-3.6-6-5c-2.2-1.4-4.6-2.8-7.1-4.2c-2.5-1.4-4.6-2.9-6.2-4.6c-2.2-2.2-4.5-4.2-6.9-5.8c-2.4-1.7-4.8-3.3-7.3-5
			c-2.5-1.7-4.9-3.5-7.1-5.4c-2.2-1.9-4.2-4.4-5.8-7.5c-5-4.7-9.4-9.9-13.1-15.4c-3.8-5.6-7.2-11.3-10.2-17.1l-3.8-17.5
			c0.6-3.9,0.3-7.8-0.6-11.7c-1-3.9-0.6-7.8,1-11.7c1.7-3.3,2.6-7,2.9-11c0.3-4,1.9-7.4,5-10.2c4.7-5.8,9.6-11.7,14.6-17.7
			c5-6,11.1-10.5,18.3-13.5c4.7-3.3,9.7-5.7,14.8-7.1c5.1-1.4,10.5-2.9,16.1-4.6c2.8-1.1,4.4-2.8,5-5c0.5-2.2,0.8-4.7,0.8-7.3
			c0-2.6,0.1-5.1,0.4-7.5c0.3-2.4,1.7-4.4,4.2-6c2.5-1.9,5.4-2.7,8.8-2.3c3.3,0.4,6.5,0.6,9.6,0.6c1.7,0.3,3.3,0.9,5,1.9
			C744.3,87.7,745.4,89.1,745.9,91.1z M712.2,145.3c-1.7-1.1-3.1-1.5-4.2-1.2c-5.6,1.4-11.1,4.5-16.7,9.2
			c-3.6,4.7-5.1,10.3-4.6,16.7c0.6,6.4,1.9,12.2,4.2,17.5c1.7,1.7,3.2,3.5,4.6,5.4c1.4,1.9,2.9,3.9,4.6,5.8c1.7,1.9,3.4,3.5,5.2,4.8
			c1.8,1.2,4,2,6.5,2.3c3.1-1.4,4.2-3.8,3.5-7.3c-0.7-3.5-0.8-6.7-0.2-9.8c-1.7-6.4-2-12.9-1-19.6c1-6.7,0.9-13.3-0.2-20
			L712.2,145.3z M759.7,324.1c-1.7-2.2-3.4-4.5-5.2-6.9c-1.8-2.4-4.1-3.7-6.9-4c-2.2,0.3-3.2,1.6-2.9,4c0.3,2.4,0.1,4.4-0.4,6
			c0.6,4.7,1.2,9.5,2.1,14.2s1.1,9.7,0.8,15c0,3.3,0,6.6,0,9.8s0.3,6.3,0.8,9.4c0.6,1.7,1.8,2.4,3.8,2.1c3.1-0.3,5.5-1.8,7.5-4.6
			c1.9-2.8,3.6-5.6,5-8.3c1.9-2.8,3.1-5.8,3.3-9c0.3-3.2,0.1-6.4-0.6-9.6c-0.7-3.2-1.7-6.4-3.1-9.6
			C762.5,329.4,761.1,326.6,759.7,324.1z"/>
	</g>
	<path class="st3" d="M903,83.8c-2.3-2.1-4.6-4.3-7.2-6.5c-3.1-2.7-6.2-5.2-9.1-7.5c-8.5,7.4-17.1,14.8-25.7,22.2
		c2.8,2,5.6,4.3,8.6,6.8c2.8,2.4,5.4,4.9,7.7,7.2C885.9,98.6,894.5,91.2,903,83.8z"/>
	<path class="st3" d="M936.8,123.4c-8.7-12.4-17.5-22.9-25.7-31.5c-8.5,7-17.1,14-25.7,21c7.6,7.1,16.2,16.3,24.5,28
		c10.7,15,17.7,29.4,22.2,40.8c8.5-7.8,17.1-15.5,25.7-23.3C952.4,147.8,945.6,135.9,936.8,123.4z"/>
	<path class="st3" d="M807.4,179.4c-10.9,8.9-21.8,17.9-32.6,26.8c3.7,2.9,7.3,4.1,9.3,4.7c1.4,0.4,8.5,2,15.2-1.2
		c2.9-1.4,4.3-3,4.7-3.5c0.3-0.3,1.4-1.7,2.3-4.7c0.9-2.9,1-5.2,1.2-9.3c0.1-1.7,0-1.8,0-8.2C807.4,182.1,807.4,180.5,807.4,179.4z"
		/>
	<path class="st3" d="M773.6,194.5c10.9-9.3,21.8-18.7,32.6-28c0.9-3.9,1.8-9.2,1.5-15.6c-0.2-4.9-1.1-9-2-12.3
		c-12.6,10.6-25.3,21.1-37.9,31.7c0.3,2.4,0.7,4.6,1.1,6.5c0.5,2.4,0.7,2.7,1.1,4.9c0.8,3.8,0.6,4.6,1.2,7
		C771.6,190.1,772.3,192.2,773.6,194.5z"/>
	<path class="st3" d="M675.6,262.2c0.8,0.7,2.8,2.6,5.4,4.9c1.5,1.3,2.8,2.4,3.9,3.3c19.8-17.1,39.6-34.2,59.5-51.3
		c0-0.4,0-3.1,0-3.5c0-12.3-0.1-13.6,0-15.2c0.5-7.5,0.9-13.2,1.2-16.3c-25.7,23.7-51.3,47.4-77,71.1
		C670.2,256.8,672.6,259.3,675.6,262.2z"/>
	<path class="st3" d="M802.7,270.3c-3.8-5.5-7.2-8.7-12.8-14c-8.7-8.2-16.6-13.5-29.1-22.2c-4.3-3-8-5.4-10.5-7
		c-19.3,16.2-38.7,32.4-58,48.6c8.7,6.1,14.3,8.9,18.3,15.6c1.9,3.1,2.3,5.2,2.3,30.3c0.1,46.7-1.3,52.6-4.7,53.6
		c-4.9,1.6-12.1-7.4-17.5-14c-6.8-8.3-9.7-16.5-10.5-18.7c-3-8.7-1.4-10.4-4.7-18.7c-2.5-6.2-5.3-14.5-10.5-15.2
		c-2-0.3-2.3,0.9-7,1.2c-3.2,0.2-4.6-0.2-6.3-0.2c-2.2,2-4.3,4-6.5,6c-1.9,1.6-3.9,3.1-5.8,4.7c-1.4,5.7-2,10.6-2.3,14
		c-0.5,6.6-0.3,12.5,0,18.7c0.3,6.8,0.6,6.8,1.2,16.3c0.7,12.7,0.2,12.9,1.2,15.2c2.9,7.1,10.3,10.3,18.7,14c5,2.2,12.9,5,23.3,5.8
		c21.8-19.4,43.5-38.9,65.3-58.3c-1.3-8.6-4.1-30.9,1.2-32.6c4.1-1.3,11.4,10,16.3,18.7c15.9-14,31.9-28,47.8-42
		C810.6,285.1,807.9,277.9,802.7,270.3z"/>
	<path class="st3" d="M516.9,413.5c8.2-7.3,16.5-14.6,24.7-21.9c-2.3-3.5-4.7-7-7-10.5c-8.2,7.4-16.3,14.8-24.5,22.2
		C512.3,406.7,514.6,410.1,516.9,413.5z"/>
	<path class="st3" d="M575.4,432.4c-12.5-11.9-22-23.7-29.1-33.8c-8.4,6.8-16.9,13.7-25.3,20.5c0.1,0.1,0.2,0.2,0.3,0.4
		c2.6,3.6,13.4,18.4,30.9,35c13.4,12.7,26.7,22.6,38.5,30.3c8.9-7,17.9-14,26.8-21C605.2,456.8,590.4,446.7,575.4,432.4z"/>
	<path class="st4" d="M809.7,168.9"/>
</g>
<g id="Camada_2_1_">
</g>
</svg>
